<svg width="45" height="45" viewBox="0 0 45 45" fill="none" xmlns="http://www.w3.org/2000/svg">
<rect x="0.824493" y="1.23563" width="43.477" height="43.3357" rx="21.6678" fill="white" stroke="#0D4CD3" stroke-width="0.78961"/>
<path d="M35.3696 18.1312C35.2577 16.6694 34.1383 14.7952 33.0189 13.8956C31.7602 12.975 30.4523 12.1241 29.1011 11.3468C27.7602 10.5484 26.3777 9.82266 24.9594 9.17279C24.2019 8.86234 23.3895 8.70933 22.5714 8.72299C21.7531 8.70572 20.94 8.85887 20.1834 9.17279C18.7655 9.82312 17.3829 10.5488 16.0418 11.3468C13.8776 12.6587 12.1239 13.8956 12.1239 13.8956C11.2171 14.658 10.5268 15.636 10.109 16.7305C10.0149 16.9771 10.2044 17.2315 10.4683 17.2315H12.0756C12.3686 17.2315 12.6337 17.0667 12.7915 16.8198C13.1025 16.3334 13.4882 15.8934 13.9387 15.5172C13.9387 15.5172 15.3867 14.503 17.1736 13.4272C18.2809 12.7729 19.4225 12.1778 20.5933 11.6445C21.2179 11.3871 21.8893 11.2615 22.565 11.2757C23.2404 11.2645 23.9112 11.39 24.5367 11.6445C25.7077 12.1774 26.8492 12.7725 27.9564 13.4272C29.072 14.0646 30.1519 14.7623 31.1913 15.5172C32.1155 16.2549 33.0398 17.7917 33.1322 18.9904C33.1322 18.9904 33.3478 20.7731 33.3786 22.8847C33.3768 24.1887 33.3048 25.4917 33.163 26.7881C32.948 28.1455 32.2476 29.3793 31.1913 30.2613C31.1913 30.2613 29.7433 31.3063 27.9564 32.3821C26.849 33.0364 25.7075 33.6315 24.5367 34.1647C23.912 34.4222 23.2407 34.5477 22.565 34.5336C21.8902 34.5477 21.2194 34.4254 20.5933 34.174C19.4223 33.6411 18.2807 33.046 17.1736 32.3913C15.3867 31.3463 13.9387 30.2705 13.9387 30.2705C13.5446 29.956 13.1506 29.4962 12.8186 28.9793C12.6629 28.7369 12.4007 28.5778 12.1126 28.5778H10.478C10.2106 28.5778 10.0216 28.8379 10.1239 29.0849C10.5774 30.1794 11.3506 31.2659 12.1239 31.8874C12.1239 31.8874 13.8776 33.1993 16.0418 34.4737C17.3827 35.2721 18.7652 35.9978 20.1834 36.6477C20.9418 36.9543 21.7541 37.1035 22.5714 37.0863C23.3898 37.1035 24.2029 36.9504 24.9594 36.6365C26.3774 35.9861 27.76 35.2604 29.1011 34.4625C31.2653 33.1506 33.0189 31.8761 33.0189 31.8761C34.2983 30.8006 35.1466 29.2959 35.4069 27.6406C35.5787 26.0596 35.6658 24.4706 35.6681 22.8803C35.6308 20.3052 35.3696 18.1312 35.3696 18.1312Z" fill="url(#paint0_linear_254_1807)"/>
<path d="M9.47266 19.7851C9.47266 19.4718 9.72747 19.2178 10.0418 19.2178H18.8635C19.1778 19.2178 19.4326 19.4718 19.4326 19.7851V21.487C19.4326 21.8004 19.1778 22.0543 18.8635 22.0543H9.47266V19.7851Z" fill="#0066B3"/>
<path d="M9.47266 23.7559H27.4006C27.7149 23.7559 27.9697 24.0099 27.9697 24.3232V26.0251C27.9697 26.3385 27.7149 26.5925 27.4006 26.5925H10.0418C9.72747 26.5925 9.47266 26.3385 9.47266 26.0251V23.7559Z" fill="#EE2F53"/>
<defs>
<linearGradient id="paint0_linear_254_1807" x1="22.8028" y1="8.72168" x2="22.8028" y2="37.0876" gradientUnits="userSpaceOnUse">
<stop stop-color="#0066B3"/>
<stop offset="0.354167" stop-color="#0066B3"/>
<stop offset="0.6875" stop-color="#EE2F53"/>
<stop offset="1" stop-color="#EE2F53"/>
</linearGradient>
</defs>
</svg>
