<svg width="334" height="48" viewBox="0 0 334 48" fill="none" xmlns="http://www.w3.org/2000/svg">
<rect x="0.5" y="0.5" width="333" height="47" rx="7.5" fill="white" stroke="#0D4CD3"/>
<path d="M81.79 32V17.65H86.43C87.3233 17.65 88.09 17.7367 88.73 17.91C89.37 18.0833 89.8967 18.3333 90.31 18.66C90.7233 18.98 91.0267 19.3733 91.22 19.84C91.42 20.3067 91.52 20.83 91.52 21.41C91.52 21.7567 91.4633 22.0933 91.35 22.42C91.2433 22.74 91.08 23.04 90.86 23.32C90.64 23.5933 90.3633 23.8433 90.03 24.07C89.6967 24.29 89.3067 24.47 88.86 24.61C89.8933 24.8167 90.6733 25.1967 91.2 25.75C91.7333 26.2967 92 27.01 92 27.89C92 28.5033 91.8867 29.0633 91.66 29.57C91.4333 30.07 91.1033 30.5 90.67 30.86C90.2367 31.22 89.7033 31.5 89.07 31.7C88.4433 31.9 87.7267 32 86.92 32H81.79ZM83.85 25.5V30.36H86.89C87.4367 30.36 87.9033 30.2967 88.29 30.17C88.6767 30.0433 88.9933 29.87 89.24 29.65C89.4867 29.4233 89.6667 29.1567 89.78 28.85C89.9 28.5433 89.96 28.2067 89.96 27.84C89.96 27.12 89.7067 26.55 89.2 26.13C88.6933 25.71 87.9233 25.5 86.89 25.5H83.85ZM83.85 24.04H86.34C86.8733 24.04 87.3367 23.9833 87.73 23.87C88.1233 23.7567 88.4467 23.5967 88.7 23.39C88.96 23.1833 89.1533 22.9333 89.28 22.64C89.4067 22.3467 89.47 22.02 89.47 21.66C89.47 20.8333 89.22 20.23 88.72 19.85C88.2267 19.4633 87.4633 19.27 86.43 19.27H83.85V24.04ZM98.5025 21.69C99.2492 21.69 99.9225 21.8133 100.523 22.06C101.123 22.3 101.633 22.6467 102.053 23.1C102.473 23.5533 102.796 24.1033 103.023 24.75C103.249 25.39 103.363 26.11 103.363 26.91C103.363 27.71 103.249 28.4333 103.023 29.08C102.796 29.7267 102.473 30.2767 102.053 30.73C101.633 31.1833 101.123 31.5333 100.523 31.78C99.9225 32.02 99.2492 32.14 98.5025 32.14C97.7558 32.14 97.0792 32.02 96.4725 31.78C95.8725 31.5333 95.3592 31.1833 94.9325 30.73C94.5125 30.2767 94.1892 29.7267 93.9625 29.08C93.7358 28.4333 93.6225 27.71 93.6225 26.91C93.6225 26.11 93.7358 25.39 93.9625 24.75C94.1892 24.1033 94.5125 23.5533 94.9325 23.1C95.3592 22.6467 95.8725 22.3 96.4725 22.06C97.0792 21.8133 97.7558 21.69 98.5025 21.69ZM98.5025 30.66C99.4758 30.66 100.203 30.3333 100.683 29.68C101.163 29.0267 101.403 28.1067 101.403 26.92C101.403 25.74 101.163 24.82 100.683 24.16C100.203 23.5 99.4758 23.17 98.5025 23.17C97.5158 23.17 96.7792 23.5 96.2925 24.16C95.8125 24.82 95.5725 25.74 95.5725 26.92C95.5725 28.1067 95.8125 29.0267 96.2925 29.68C96.7792 30.3333 97.5158 30.66 98.5025 30.66ZM105.56 32.01V21.86H107.46V28.58C107.46 28.7133 107.453 28.86 107.44 29.02C107.426 29.1733 107.41 29.3267 107.39 29.48C107.51 29.22 107.633 28.99 107.76 28.79C107.766 28.7767 107.84 28.6733 107.98 28.48C108.126 28.2867 108.31 28.04 108.53 27.74C108.756 27.4333 109.01 27.0867 109.29 26.7C109.576 26.3133 109.866 25.92 110.16 25.52C110.853 24.58 111.636 23.5167 112.51 22.33C112.583 22.2167 112.676 22.11 112.79 22.01C112.91 21.9033 113.043 21.85 113.19 21.85H114.34V32H112.44V25.28C112.44 25.1467 112.446 25.0033 112.46 24.85C112.473 24.69 112.49 24.5333 112.51 24.38C112.45 24.5133 112.386 24.6367 112.32 24.75C112.26 24.8633 112.2 24.9667 112.14 25.06C112.126 25.0733 112.05 25.1767 111.91 25.37C111.77 25.5633 111.586 25.8133 111.36 26.12C111.133 26.4267 110.876 26.7733 110.59 27.16C110.31 27.5467 110.023 27.94 109.73 28.34C109.036 29.28 108.256 30.3433 107.39 31.53C107.316 31.6433 107.22 31.7533 107.1 31.86C106.986 31.96 106.856 32.01 106.71 32.01H105.56ZM110.07 19.37C110.336 19.37 110.563 19.34 110.75 19.28C110.936 19.22 111.086 19.1233 111.2 18.99C111.313 18.85 111.393 18.67 111.44 18.45C111.493 18.23 111.52 17.9633 111.52 17.65H112.63C112.763 17.65 112.863 17.71 112.93 17.83C113.003 17.9433 113.04 18.07 113.04 18.21C113.04 18.5433 112.97 18.8467 112.83 19.12C112.696 19.3867 112.503 19.6167 112.25 19.81C111.996 19.9967 111.683 20.1433 111.31 20.25C110.943 20.35 110.53 20.4 110.07 20.4C109.61 20.4 109.193 20.35 108.82 20.25C108.453 20.1433 108.143 19.9967 107.89 19.81C107.636 19.6167 107.44 19.3867 107.3 19.12C107.166 18.8467 107.1 18.5433 107.1 18.21C107.1 18.07 107.133 17.9433 107.2 17.83C107.273 17.71 107.376 17.65 107.51 17.65H108.62C108.62 17.9633 108.643 18.23 108.69 18.45C108.743 18.67 108.826 18.85 108.94 18.99C109.053 19.1233 109.2 19.22 109.38 19.28C109.566 19.34 109.796 19.37 110.07 19.37ZM115.993 21.85H125.583V23.29H121.733V32H119.843V23.29H115.993V21.85ZM127.239 32.01V21.86H129.139V28.58C129.139 28.7133 129.133 28.86 129.119 29.02C129.106 29.1733 129.089 29.3267 129.069 29.48C129.189 29.22 129.313 28.99 129.439 28.79C129.446 28.7767 129.519 28.6733 129.659 28.48C129.806 28.2867 129.989 28.04 130.209 27.74C130.436 27.4333 130.689 27.0867 130.969 26.7C131.256 26.3133 131.546 25.92 131.839 25.52C132.533 24.58 133.316 23.5167 134.189 22.33C134.263 22.2167 134.356 22.11 134.469 22.01C134.589 21.9033 134.723 21.85 134.869 21.85H136.019V32H134.119V25.28C134.119 25.1467 134.126 25.0033 134.139 24.85C134.153 24.69 134.169 24.5333 134.189 24.38C134.129 24.5133 134.066 24.6367 133.999 24.75C133.939 24.8633 133.879 24.9667 133.819 25.06C133.806 25.0733 133.729 25.1767 133.589 25.37C133.449 25.5633 133.266 25.8133 133.039 26.12C132.813 26.4267 132.556 26.7733 132.269 27.16C131.989 27.5467 131.703 27.94 131.409 28.34C130.716 29.28 129.936 30.3433 129.069 31.53C128.996 31.6433 128.899 31.7533 128.779 31.86C128.666 31.96 128.536 32.01 128.389 32.01H127.239ZM151.44 32H149.54V27.75C148.667 27.9767 147.85 28.1167 147.09 28.17C146.33 28.2233 145.667 28.16 145.1 27.98C144.534 27.7933 144.087 27.4767 143.76 27.03C143.434 26.5833 143.27 25.9733 143.27 25.2V21.85H145.17V24.92C145.17 25.3933 145.264 25.77 145.45 26.05C145.637 26.3233 145.914 26.5167 146.28 26.63C146.647 26.7367 147.1 26.77 147.64 26.73C148.187 26.6833 148.82 26.5767 149.54 26.41V21.85H151.44V32ZM158.383 21.69C158.996 21.69 159.563 21.7933 160.083 22C160.603 22.2 161.053 22.4933 161.433 22.88C161.813 23.2667 162.109 23.7433 162.323 24.31C162.536 24.87 162.643 25.5133 162.643 26.24C162.643 26.5333 162.609 26.73 162.543 26.83C162.483 26.93 162.366 26.98 162.193 26.98H155.493C155.513 27.6 155.599 28.14 155.752 28.6C155.913 29.06 156.126 29.4433 156.393 29.75C156.666 30.05 156.993 30.2767 157.373 30.43C157.753 30.5767 158.176 30.65 158.643 30.65C159.083 30.65 159.459 30.6 159.773 30.5C160.093 30.4 160.366 30.29 160.593 30.17C160.826 30.05 161.023 29.94 161.183 29.84C161.343 29.74 161.483 29.69 161.603 29.69C161.763 29.69 161.879 29.75 161.953 29.87L162.493 30.56C162.259 30.84 161.989 31.08 161.683 31.28C161.376 31.4733 161.046 31.6367 160.693 31.77C160.339 31.8967 159.973 31.99 159.593 32.05C159.219 32.11 158.849 32.14 158.483 32.14C157.783 32.14 157.133 32.0233 156.533 31.79C155.939 31.55 155.426 31.2033 154.993 30.75C154.559 30.29 154.219 29.7233 153.973 29.05C153.733 28.37 153.613 27.59 153.613 26.71C153.613 26.0033 153.723 25.3467 153.943 24.74C154.163 24.1267 154.476 23.5967 154.883 23.15C155.296 22.6967 155.796 22.34 156.383 22.08C156.976 21.82 157.643 21.69 158.383 21.69ZM158.413 23.08C157.579 23.08 156.923 23.3233 156.443 23.81C155.969 24.29 155.673 24.9567 155.553 25.81H160.943C160.943 25.41 160.886 25.0433 160.773 24.71C160.659 24.3767 160.493 24.09 160.273 23.85C160.059 23.61 159.796 23.4233 159.483 23.29C159.169 23.15 158.813 23.08 158.413 23.08ZM164.778 35.41V21.85H165.918C166.185 21.85 166.352 21.9767 166.418 22.23L166.578 23.39C167.005 22.8767 167.495 22.4633 168.048 22.15C168.608 21.83 169.248 21.67 169.968 21.67C170.548 21.67 171.072 21.7833 171.538 22.01C172.012 22.23 172.415 22.56 172.748 23C173.088 23.44 173.348 23.9833 173.528 24.63C173.708 25.27 173.798 26.01 173.798 26.85C173.798 27.6033 173.698 28.3033 173.498 28.95C173.298 29.59 173.008 30.1467 172.628 30.62C172.248 31.0933 171.788 31.4667 171.248 31.74C170.708 32.0067 170.098 32.14 169.418 32.14C168.798 32.14 168.272 32.04 167.838 31.84C167.405 31.64 167.018 31.3533 166.678 30.98V35.41H164.778ZM169.348 23.2C168.775 23.2 168.275 23.33 167.848 23.59C167.428 23.8433 167.038 24.2067 166.678 24.68V29.53C166.998 29.95 167.345 30.2467 167.718 30.42C168.098 30.5867 168.522 30.67 168.988 30.67C169.902 30.67 170.605 30.3433 171.098 29.69C171.592 29.0367 171.838 28.09 171.838 26.85C171.838 26.2033 171.782 25.65 171.668 25.19C171.555 24.73 171.392 24.3533 171.178 24.06C170.965 23.76 170.705 23.5433 170.398 23.41C170.092 23.27 169.742 23.2 169.348 23.2ZM180.199 21.69C180.812 21.69 181.379 21.7933 181.899 22C182.419 22.2 182.869 22.4933 183.249 22.88C183.629 23.2667 183.926 23.7433 184.139 24.31C184.352 24.87 184.459 25.5133 184.459 26.24C184.459 26.5333 184.426 26.73 184.359 26.83C184.299 26.93 184.182 26.98 184.009 26.98H177.309C177.329 27.6 177.416 28.14 177.569 28.6C177.729 29.06 177.942 29.4433 178.209 29.75C178.482 30.05 178.809 30.2767 179.189 30.43C179.569 30.5767 179.992 30.65 180.459 30.65C180.899 30.65 181.276 30.6 181.589 30.5C181.909 30.4 182.182 30.29 182.409 30.17C182.642 30.05 182.839 29.94 182.999 29.84C183.159 29.74 183.299 29.69 183.419 29.69C183.579 29.69 183.696 29.75 183.769 29.87L184.309 30.56C184.076 30.84 183.806 31.08 183.499 31.28C183.192 31.4733 182.862 31.6367 182.509 31.77C182.156 31.8967 181.789 31.99 181.409 32.05C181.036 32.11 180.666 32.14 180.299 32.14C179.599 32.14 178.949 32.0233 178.349 31.79C177.756 31.55 177.242 31.2033 176.809 30.75C176.376 30.29 176.036 29.7233 175.789 29.05C175.549 28.37 175.429 27.59 175.429 26.71C175.429 26.0033 175.539 25.3467 175.759 24.74C175.979 24.1267 176.292 23.5967 176.699 23.15C177.112 22.6967 177.612 22.34 178.199 22.08C178.792 21.82 179.459 21.69 180.199 21.69ZM180.229 23.08C179.396 23.08 178.739 23.3233 178.259 23.81C177.786 24.29 177.489 24.9567 177.369 25.81H182.759C182.759 25.41 182.702 25.0433 182.589 24.71C182.476 24.3767 182.309 24.09 182.089 23.85C181.876 23.61 181.612 23.4233 181.299 23.29C180.986 23.15 180.629 23.08 180.229 23.08ZM185.955 22.9C186.335 22.54 186.802 22.25 187.355 22.03C187.908 21.8033 188.568 21.69 189.335 21.69C189.955 21.69 190.502 21.7667 190.975 21.92C191.448 22.0667 191.845 22.2633 192.165 22.51C192.485 22.7567 192.725 23.0433 192.885 23.37C193.052 23.69 193.135 24.02 193.135 24.36C193.135 24.56 193.102 24.77 193.035 24.99C192.975 25.2033 192.872 25.4133 192.725 25.62C192.585 25.82 192.398 26.0067 192.165 26.18C191.932 26.3467 191.645 26.4867 191.305 26.6C191.938 26.7933 192.438 27.1033 192.805 27.53C193.172 27.95 193.355 28.47 193.355 29.09C193.355 29.5633 193.245 29.99 193.025 30.37C192.812 30.7433 192.522 31.0633 192.155 31.33C191.795 31.59 191.375 31.79 190.895 31.93C190.422 32.07 189.925 32.14 189.405 32.14C189.085 32.14 188.755 32.11 188.415 32.05C188.075 31.99 187.742 31.8967 187.415 31.77C187.095 31.6433 186.788 31.48 186.495 31.28C186.208 31.08 185.952 30.84 185.725 30.56L186.265 29.87C186.345 29.75 186.465 29.69 186.625 29.69C186.745 29.69 186.872 29.7433 187.005 29.85C187.145 29.95 187.315 30.06 187.515 30.18C187.715 30.3 187.955 30.4133 188.235 30.52C188.515 30.62 188.862 30.67 189.275 30.67C189.635 30.67 189.955 30.6267 190.235 30.54C190.515 30.4533 190.752 30.3333 190.945 30.18C191.145 30.02 191.295 29.8367 191.395 29.63C191.495 29.4167 191.545 29.1833 191.545 28.93C191.545 28.4433 191.345 28.0567 190.945 27.77C190.545 27.4767 189.928 27.33 189.095 27.33H187.945V26.06H189.095C189.822 26.06 190.388 25.9233 190.795 25.65C191.202 25.3767 191.405 25.0233 191.405 24.59C191.405 24.3967 191.362 24.2133 191.275 24.04C191.188 23.8667 191.055 23.7167 190.875 23.59C190.702 23.4567 190.482 23.3533 190.215 23.28C189.948 23.2 189.638 23.16 189.285 23.16C188.892 23.16 188.558 23.2 188.285 23.28C188.018 23.3533 187.788 23.44 187.595 23.54C187.408 23.6333 187.252 23.72 187.125 23.8C187.005 23.8733 186.902 23.91 186.815 23.91C186.722 23.91 186.645 23.8933 186.585 23.86C186.532 23.82 186.468 23.7433 186.395 23.63L185.955 22.9ZM209.747 19.27H203.137V32H201.067V17.65H209.747V19.27ZM212.272 21.69C213.019 21.69 213.692 21.8133 214.292 22.06C214.892 22.3 215.402 22.6467 215.822 23.1C216.242 23.5533 216.565 24.1033 216.792 24.75C217.019 25.39 217.132 26.11 217.132 26.91C217.132 27.71 217.019 28.4333 216.792 29.08C216.565 29.7267 216.242 30.2767 215.822 30.73C215.402 31.1833 214.892 31.5333 214.292 31.78C213.692 32.02 213.019 32.14 212.272 32.14C211.525 32.14 210.849 32.02 210.242 31.78C209.642 31.5333 209.129 31.1833 208.702 30.73C208.282 30.2767 207.959 29.7267 207.732 29.08C207.505 28.4333 207.392 27.71 207.392 26.91C207.392 26.11 207.505 25.39 207.732 24.75C207.959 24.1033 208.282 23.5533 208.702 23.1C209.129 22.6467 209.642 22.3 210.242 22.06C210.849 21.8133 211.525 21.69 212.272 21.69ZM212.272 30.66C213.245 30.66 213.972 30.3333 214.452 29.68C214.932 29.0267 215.172 28.1067 215.172 26.92C215.172 25.74 214.932 24.82 214.452 24.16C213.972 23.5 213.245 23.17 212.272 23.17C211.285 23.17 210.549 23.5 210.062 24.16C209.582 24.82 209.342 25.74 209.342 26.92C209.342 28.1067 209.582 29.0267 210.062 29.68C210.549 30.3333 211.285 30.66 212.272 30.66ZM226.429 23.72C226.376 23.7933 226.319 23.85 226.259 23.89C226.206 23.93 226.129 23.95 226.029 23.95C225.923 23.95 225.809 23.91 225.689 23.83C225.569 23.7433 225.423 23.6533 225.249 23.56C225.076 23.46 224.863 23.37 224.609 23.29C224.356 23.2033 224.046 23.16 223.679 23.16C223.193 23.16 222.763 23.2467 222.389 23.42C222.016 23.5933 221.703 23.8433 221.449 24.17C221.203 24.4967 221.016 24.89 220.889 25.35C220.763 25.81 220.699 26.33 220.699 26.91C220.699 27.51 220.766 28.0433 220.899 28.51C221.039 28.9767 221.233 29.37 221.479 29.69C221.733 30.01 222.036 30.2533 222.389 30.42C222.749 30.5867 223.149 30.67 223.589 30.67C224.016 30.67 224.366 30.62 224.639 30.52C224.913 30.4133 225.139 30.3 225.319 30.18C225.499 30.06 225.649 29.95 225.769 29.85C225.896 29.7433 226.023 29.69 226.149 29.69C226.309 29.69 226.429 29.75 226.509 29.87L227.049 30.56C226.816 30.84 226.556 31.08 226.269 31.28C225.983 31.48 225.676 31.6433 225.349 31.77C225.023 31.8967 224.683 31.99 224.329 32.05C223.976 32.11 223.616 32.14 223.249 32.14C222.616 32.14 222.026 32.0233 221.479 31.79C220.933 31.5567 220.456 31.2167 220.049 30.77C219.649 30.3233 219.333 29.7767 219.099 29.13C218.873 28.4767 218.759 27.7367 218.759 26.91C218.759 26.1567 218.863 25.4633 219.069 24.83C219.283 24.19 219.593 23.6367 219.999 23.17C220.406 22.7033 220.906 22.34 221.499 22.08C222.099 21.82 222.786 21.69 223.559 21.69C224.286 21.69 224.923 21.8067 225.469 22.04C226.023 22.2733 226.509 22.6 226.929 23.02L226.429 23.72ZM232.07 34.96C232.01 35.1067 231.933 35.2167 231.84 35.29C231.747 35.37 231.603 35.41 231.41 35.41H230L231.86 31.38L227.68 21.85H229.33C229.49 21.85 229.617 21.89 229.71 21.97C229.803 22.0433 229.867 22.13 229.9 22.23L232.53 28.43C232.643 28.7367 232.733 29.04 232.8 29.34C232.847 29.1867 232.897 29.0333 232.95 28.88C233.003 28.72 233.06 28.5633 233.12 28.41L235.66 22.23C235.7 22.1167 235.77 22.0267 235.87 21.96C235.97 21.8867 236.083 21.85 236.21 21.85H237.72L232.07 34.96ZM246.058 23.72C246.005 23.7933 245.948 23.85 245.888 23.89C245.835 23.93 245.758 23.95 245.658 23.95C245.551 23.95 245.438 23.91 245.318 23.83C245.198 23.7433 245.051 23.6533 244.878 23.56C244.705 23.46 244.491 23.37 244.238 23.29C243.985 23.2033 243.675 23.16 243.308 23.16C242.821 23.16 242.391 23.2467 242.018 23.42C241.645 23.5933 241.331 23.8433 241.078 24.17C240.831 24.4967 240.645 24.89 240.518 25.35C240.391 25.81 240.328 26.33 240.328 26.91C240.328 27.51 240.395 28.0433 240.528 28.51C240.668 28.9767 240.861 29.37 241.108 29.69C241.361 30.01 241.665 30.2533 242.018 30.42C242.378 30.5867 242.778 30.67 243.218 30.67C243.645 30.67 243.995 30.62 244.268 30.52C244.541 30.4133 244.768 30.3 244.948 30.18C245.128 30.06 245.278 29.95 245.398 29.85C245.525 29.7433 245.651 29.69 245.778 29.69C245.938 29.69 246.058 29.75 246.138 29.87L246.678 30.56C246.445 30.84 246.185 31.08 245.898 31.28C245.611 31.48 245.305 31.6433 244.978 31.77C244.651 31.8967 244.311 31.99 243.958 32.05C243.605 32.11 243.245 32.14 242.878 32.14C242.245 32.14 241.655 32.0233 241.108 31.79C240.561 31.5567 240.085 31.2167 239.678 30.77C239.278 30.3233 238.961 29.7767 238.728 29.13C238.501 28.4767 238.388 27.7367 238.388 26.91C238.388 26.1567 238.491 25.4633 238.698 24.83C238.911 24.19 239.221 23.6367 239.628 23.17C240.035 22.7033 240.535 22.34 241.128 22.08C241.728 21.82 242.415 21.69 243.188 21.69C243.915 21.69 244.551 21.8067 245.098 22.04C245.651 22.2733 246.138 22.6 246.558 23.02L246.058 23.72ZM257.489 21.85V32H255.599V23.34H252.509C252.429 24.62 252.309 25.7267 252.149 26.66C251.989 27.5933 251.796 28.3867 251.569 29.04C251.342 29.6867 251.092 30.2133 250.819 30.62C250.546 31.0267 250.256 31.3433 249.949 31.57C249.642 31.79 249.326 31.94 248.999 32.02C248.672 32.1 248.346 32.14 248.019 32.14C247.426 32.14 247.129 32.0433 247.129 31.85V30.65H247.659C247.886 30.65 248.116 30.6133 248.349 30.54C248.582 30.46 248.809 30.3067 249.029 30.08C249.249 29.8533 249.459 29.54 249.659 29.14C249.866 28.7333 250.052 28.2067 250.219 27.56C250.386 26.9067 250.529 26.1133 250.649 25.18C250.776 24.2467 250.872 23.1367 250.939 21.85H257.489ZM263.457 34.96C263.397 35.1067 263.32 35.2167 263.227 35.29C263.133 35.37 262.99 35.41 262.797 35.41H261.387L263.247 31.38L259.067 21.85H260.717C260.877 21.85 261.003 21.89 261.097 21.97C261.19 22.0433 261.253 22.13 261.287 22.23L263.917 28.43C264.03 28.7367 264.12 29.04 264.187 29.34C264.233 29.1867 264.283 29.0333 264.337 28.88C264.39 28.72 264.447 28.5633 264.507 28.41L267.047 22.23C267.087 22.1167 267.157 22.0267 267.257 21.96C267.357 21.8867 267.47 21.85 267.597 21.85H269.107L263.457 34.96ZM277.248 21.85V23.29H272.518V32H270.618V21.85H277.248ZM278.9 32.01V21.86H280.8V28.58C280.8 28.7133 280.793 28.86 280.78 29.02C280.766 29.1733 280.75 29.3267 280.73 29.48C280.85 29.22 280.973 28.99 281.1 28.79C281.106 28.7767 281.18 28.6733 281.32 28.48C281.466 28.2867 281.65 28.04 281.87 27.74C282.096 27.4333 282.35 27.0867 282.63 26.7C282.916 26.3133 283.206 25.92 283.5 25.52C284.193 24.58 284.976 23.5167 285.85 22.33C285.923 22.2167 286.016 22.11 286.13 22.01C286.25 21.9033 286.383 21.85 286.53 21.85H287.68V32H285.78V25.28C285.78 25.1467 285.786 25.0033 285.8 24.85C285.813 24.69 285.83 24.5333 285.85 24.38C285.79 24.5133 285.726 24.6367 285.66 24.75C285.6 24.8633 285.54 24.9667 285.48 25.06C285.466 25.0733 285.39 25.1767 285.25 25.37C285.11 25.5633 284.926 25.8133 284.7 26.12C284.473 26.4267 284.216 26.7733 283.93 27.16C283.65 27.5467 283.363 27.94 283.07 28.34C282.376 29.28 281.596 30.3433 280.73 31.53C280.656 31.6433 280.56 31.7533 280.44 31.86C280.326 31.96 280.196 32.01 280.05 32.01H278.9Z" fill="#0D4CD3"/>
<path d="M66.5988 19.288C66.4887 17.8451 65.3873 15.9951 64.2859 15.1071C63.0474 14.1984 61.7605 13.3585 60.431 12.5912C59.1117 11.8031 57.7513 11.0868 56.3559 10.4453C55.6105 10.1388 54.8112 9.98781 54.0063 10.0013C53.201 9.98425 52.401 10.1354 51.6566 10.4453C50.2614 11.0872 48.9011 11.8035 47.5815 12.5912C45.4521 13.8862 43.7266 15.1071 43.7266 15.1071C42.8722 15.8277 42.2132 16.7434 41.7979 17.7682C41.6724 18.0779 41.9123 18.3999 42.2464 18.3999H43.5435C43.9151 18.3999 44.2499 18.1896 44.457 17.8811C44.7495 17.4455 45.1038 17.0499 45.5122 16.7078C45.5122 16.7078 46.9369 15.7066 48.6951 14.6448C49.7847 13.9989 50.9078 13.4115 52.0598 12.8851C52.6745 12.631 53.335 12.5071 53.9999 12.521C54.6645 12.51 55.3245 12.6338 55.9399 12.8851C57.0921 13.4111 58.2153 13.9985 59.3047 14.6448C60.4024 15.2739 61.465 15.9627 62.4876 16.7078C63.397 17.436 64.3064 18.9529 64.3973 20.1361C64.3973 20.1361 64.6095 21.8958 64.6398 23.9801C64.638 25.2673 64.5671 26.5535 64.4276 27.8332C64.2161 29.173 63.527 30.3909 62.4876 31.2615C62.4876 31.2615 61.0629 32.293 59.3047 33.3549C58.2151 34.0008 57.0919 34.5882 55.9399 35.1146C55.3253 35.3686 54.6647 35.4926 53.9999 35.4786C53.3359 35.4926 52.676 35.3718 52.0598 35.1237C50.9077 34.5976 49.7845 34.0102 48.6951 33.364C46.9369 32.3325 45.5122 31.2706 45.5122 31.2706C45.1526 30.9827 44.7931 30.5715 44.4822 30.1064C44.2792 29.8026 43.9479 29.5998 43.5825 29.5998H42.2591C41.9207 29.5998 41.6818 29.9289 41.8176 30.2388C42.2699 31.2715 42.9982 32.2794 43.7266 32.8666C43.7266 32.8666 45.4521 34.1616 47.5815 35.4195C48.9009 36.2076 50.2612 36.924 51.6566 37.5655C52.4028 37.8681 53.2021 38.0154 54.0063 37.9984C54.8115 38.0154 55.6115 37.8642 56.3559 37.5544C57.7511 36.9124 59.1114 36.1961 60.431 35.4084C62.5604 34.1135 64.2859 32.8555 64.2859 32.8555C65.5447 31.7938 66.3794 30.3086 66.6356 28.6746C66.8045 27.1141 66.8903 25.5456 66.8926 23.9758C66.8558 21.434 66.5988 19.288 66.5988 19.288Z" fill="url(#paint0_linear_119_1994)"/>
<path d="M41.1199 20.9213C41.1199 20.612 41.3707 20.3613 41.6799 20.3613H50.3599C50.6692 20.3613 50.9199 20.612 50.9199 20.9213V22.6013C50.9199 22.9106 50.6692 23.1613 50.3599 23.1613H41.1199V20.9213Z" fill="#0066B3"/>
<path d="M41.1198 24.8408H58.7597C59.0689 24.8408 59.3197 25.0915 59.3197 25.4008V27.0808C59.3197 27.3901 59.0689 27.6408 58.7597 27.6408H41.6797C41.3705 27.6408 41.1198 27.3901 41.1198 27.0808V24.8408Z" fill="#EE2F53"/>
<defs>
<linearGradient id="paint0_linear_119_1994" x1="54.2339" y1="10" x2="54.2339" y2="37.9997" gradientUnits="userSpaceOnUse">
<stop stop-color="#0066B3"/>
<stop offset="0.354167" stop-color="#0066B3"/>
<stop offset="0.6875" stop-color="#EE2F53"/>
<stop offset="1" stop-color="#EE2F53"/>
</linearGradient>
</defs>
</svg>
